<svg width="72" height="72" viewBox="0 0 72 72" fill="none" xmlns="http://www.w3.org/2000/svg">
<g clip-path="url(#clip0_10_1313)">
<path d="M12.7059 0H59.2941C66.3067 0 72 5.69332 72 12.7059V59.2941C72 66.3067 66.3067 72 59.2941 72H12.7059C5.69332 72 0 66.3067 0 59.2941V12.7059C0 5.69332 5.69332 0 12.7059 0V0" fill="#F5F5F5"/>
<path d="M30.796 27.356C30.4055 26.514 29.9949 26.4971 29.6237 26.4825C29.3196 26.4697 28.9723 26.4706 28.625 26.4706C28.2775 26.4706 27.7129 26.5974 27.2358 27.1031C26.7581 27.6093 25.4121 28.8322 25.4121 31.3198C25.4121 33.8074 27.2792 36.2113 27.5395 36.5491C27.8 36.886 31.1439 42.1541 36.4398 44.1807C40.8411 45.8649 41.7366 45.5301 42.6919 45.4456C43.6472 45.3613 45.7746 44.2228 46.2087 43.0422C46.643 41.8617 46.643 40.8498 46.5128 40.6383C46.3825 40.4276 46.035 40.3012 45.5141 40.0483C44.9927 39.7955 42.4312 38.5723 41.9537 38.4035C41.4762 38.235 41.1287 38.1509 40.7814 38.657C40.4339 39.1625 39.436 40.3012 39.1319 40.6383C38.8283 40.9763 38.5239 41.0184 38.0032 40.7656C37.4819 40.5119 35.8038 39.9786 33.813 38.2561C32.2642 36.9161 31.2185 35.2612 30.9146 34.7548C30.6105 34.2493 30.882 33.9753 31.1433 33.7233C31.3773 33.4969 31.6645 33.1329 31.9251 32.8379C32.185 32.5425 32.2718 32.3318 32.4455 31.9947C32.6193 31.6571 32.5323 31.3619 32.4023 31.1091C32.2718 30.8562 31.2591 28.3557 30.796 27.3562V27.356" fill="#28B53F"/>
</g>
<defs>
<clipPath id="clip0_10_1313">
<rect width="72" height="72" fill="white"/>
</clipPath>
</defs>
</svg>
