<svg width="72" height="72" viewBox="0 0 72 72" fill="none" xmlns="http://www.w3.org/2000/svg">
<g clip-path="url(#clip0_10_1318)">
<path d="M12.7059 0H59.2941C66.3067 0 72 5.69332 72 12.7059V59.2941C72 66.3067 66.3067 72 59.2941 72H12.7059C5.69332 72 0 66.3067 0 59.2941V12.7059C0 5.69332 5.69332 0 12.7059 0V0" fill="#F5F5F5"/>
<path d="M23.3998 35.8854C23.3992 38.1045 23.9815 40.2711 25.0891 42.181L23.2939 48.7059L30.0016 46.955C31.8567 47.9605 33.9353 48.4874 36.0477 48.4874H36.0532C43.0264 48.4874 48.7027 42.8385 48.7057 35.8954C48.707 32.5311 47.3921 29.3673 45.003 26.9871C42.6143 24.6071 39.4376 23.2956 36.0528 23.2941C29.0787 23.2941 23.4028 28.9427 23.4 35.8854H23.3998" fill="url(#paint0_linear_10_1318)"/>
<path d="M33.166 30.7611C32.9532 30.2508 32.7292 30.2406 32.5267 30.2315C32.3609 30.2239 32.1714 30.2245 31.9821 30.2245C31.7925 30.2245 31.4846 30.3014 31.2242 30.6078C30.9637 30.9145 30.2295 31.6556 30.2295 33.1634C30.2295 34.671 31.2479 36.1279 31.3898 36.3327C31.5321 36.5368 33.356 39.7296 36.2445 40.9578C38.6452 41.9785 39.1338 41.7757 39.6547 41.7244C40.1759 41.6734 41.3363 40.9834 41.5731 40.2679C41.8098 39.5523 41.8098 38.9391 41.7389 38.811C41.668 38.6833 41.4784 38.6066 41.1942 38.4535C40.9098 38.3002 39.5126 37.5588 39.2522 37.4565C38.9917 37.3544 38.8022 37.3034 38.6126 37.6102C38.4231 37.9165 37.8789 38.6066 37.713 38.811C37.5472 39.0157 37.3814 39.0414 37.0972 38.888C36.8128 38.7343 35.8976 38.4111 34.8119 37.3674C33.9669 36.555 33.3966 35.5519 33.2308 35.2453C33.065 34.9388 33.213 34.7728 33.3556 34.6201C33.4833 34.4827 33.6398 34.2622 33.7821 34.0833C33.9237 33.9044 33.9712 33.7767 34.0658 33.5723C34.1607 33.3678 34.1133 33.1888 34.0423 33.0357C33.9712 32.8824 33.4189 31.367 33.166 30.7611V30.7611" fill="white"/>
</g>
<defs>
<linearGradient id="paint0_linear_10_1318" x1="35.9998" y1="48.7059" x2="35.9998" y2="23.2941" gradientUnits="userSpaceOnUse">
<stop stop-color="#1FAF38"/>
<stop offset="1" stop-color="#60D669"/>
</linearGradient>
<clipPath id="clip0_10_1318">
<rect width="72" height="72" fill="white"/>
</clipPath>
</defs>
</svg>
