<svg xmlns="http://www.w3.org/2000/svg" viewBox="0 0 100 100" fill-rule="evenodd"><g class="t-group-origins"><path d="M77.315 42.821c0-15-12.204-27.203-27.205-27.203-14.999 0-27.201 12.203-27.201 27.203S35.112 70.024 50.11 70.024c15 0 27.205-12.203 27.205-27.203zm-51.406 0c0-13.345 10.856-24.203 24.201-24.203 13.347 0 24.205 10.857 24.205 24.203S63.457 67.024 50.11 67.024c-13.345 0-24.201-10.857-24.201-24.203z" stroke-width="0" stroke="#ffffff" fill="#ffffff" stroke-width-old="0"></path><path d="M91.712 43.384H88.21C87.543 22.939 70.714 6.51 50.11 6.51c-20.603 0-37.43 16.429-38.097 36.874H8.289a1.5 1.5 0 0 0-1.5 1.5v15.48a1.5 1.5 0 0 0 1.5 1.5H18.61a1.5 1.5 0 0 0 1.5-1.5v-15.48a1.5 1.5 0 0 0-1.5-1.5h-3.597C15.678 24.594 31.161 9.51 50.11 9.51c18.95 0 34.435 15.084 35.1 33.874h-3.819a1.5 1.5 0 0 0-1.5 1.5v15.48a1.5 1.5 0 0 0 1.5 1.5h3.953c-.698 12.835-11.084 23.131-23.955 23.69v-3.886a1.5 1.5 0 0 0-1.5-1.5H44.41a1.5 1.5 0 0 0-1.5 1.5v10.321a1.5 1.5 0 0 0 1.5 1.5h15.479a1.5 1.5 0 0 0 1.5-1.5v-3.435c14.526-.564 26.257-12.2 26.96-26.69h3.364a1.5 1.5 0 0 0 1.5-1.5v-15.48a1.5 1.5 0 0 0-1.501-1.5zM17.11 58.864H9.789v-12.48h7.321v12.48zm41.278 31.625H45.909v-7.321h12.479v7.321zm31.824-31.625h-7.321v-12.48h7.321v12.48z" stroke-width="0" stroke="#ffffff" fill="#ffffff" stroke-width-old="0"></path></g></svg>
