<?xml version="1.0" encoding="UTF-8"?> <svg xmlns="http://www.w3.org/2000/svg" width="1110" height="383" viewBox="0 0 1110 383" fill="none"><path d="M209.492 0H0V308.076H107.827V295.753H12.323V12.3231H197.169V99.5793H209.492V0Z" fill="white"></path><path d="M49.2922 144.796C54.3966 144.796 58.5345 140.658 58.5345 135.554C58.5345 130.449 54.3966 126.311 49.2922 126.311C44.1878 126.311 40.0499 130.449 40.0499 135.554C40.0499 140.658 44.1878 144.796 49.2922 144.796Z" fill="white"></path><path fill-rule="evenodd" clip-rule="evenodd" d="M107.836 194.089C107.836 141.343 150.594 98.585 203.34 98.585C256.085 98.585 298.843 141.343 298.843 194.089V382.015H107.836V194.089ZM147.073 132.825C131.498 145.615 124.164 160.901 121.066 181.766H194.626L147.073 132.825ZM155.983 125.695L197.178 166.89V111.133C181.939 112.249 167.84 117.47 155.983 125.695ZM209.501 111.133V168.239L254.048 128.147C241.535 118.51 226.203 112.356 209.501 111.133ZM263.281 136.416L212.892 181.766H285.614C283.017 164.282 274.981 148.574 263.281 136.416ZM286.52 194.089L209.501 194.089V268.027H286.52V194.089ZM197.178 268.027V194.089L120.159 194.089V268.027H197.178ZM197.178 280.35V369.692H120.159V280.35H197.178ZM209.501 280.35H286.52V369.692H209.501V280.35Z" fill="white"></path><path d="M854.593 236.347V208.256H851.257C851.257 209.076 851.081 209.895 850.73 210.714C850.379 211.534 849.911 211.943 849.325 211.943H786.472V173.318H836.158C836.743 173.318 837.211 173.728 837.562 174.547C837.913 175.367 838.089 176.186 838.089 177.005H841.425V148.914H838.089C838.089 149.733 837.913 150.553 837.562 151.372C837.211 152.191 836.743 152.601 836.158 152.601H786.472V121.701H844.761C845.346 121.701 845.814 122.111 846.165 122.93C846.516 123.749 846.692 124.569 846.692 125.388H850.028V97.2969H846.692C846.692 98.1162 846.516 98.9355 846.165 99.7548C845.814 100.574 845.346 100.984 844.761 100.984H759.961V104.32C760.78 104.32 761.599 104.495 762.419 104.846C763.355 105.197 763.823 105.666 763.823 106.251V227.393C763.823 227.979 763.355 228.447 762.419 228.798C761.599 229.149 760.78 229.325 759.961 229.325V232.661H849.325C849.911 232.661 850.379 233.07 850.73 233.89C851.081 234.709 851.257 235.528 851.257 236.347H854.593Z" fill="white"></path><path d="M499.839 106.075C500.19 105.022 501.595 104.495 504.053 104.495V101.159H468.412V104.495C469.817 104.495 470.987 104.846 471.924 105.549C472.977 106.251 473.387 106.953 473.153 107.655L436.81 198.6L399.414 107.655C399.062 106.953 399.121 106.251 399.589 105.549C400.057 104.846 400.994 104.495 402.398 104.495V101.159H368.338V104.495C370.796 104.495 372.2 105.022 372.552 106.075L422.94 224.76C423.174 225.228 423.291 225.872 423.291 226.691C423.291 227.745 422.94 228.505 422.238 228.974C421.535 229.325 420.774 229.5 419.955 229.5V232.836H452.435V229.5C451.616 229.5 450.855 229.325 450.153 228.974C449.451 228.505 449.1 227.745 449.1 226.691C449.1 225.872 449.217 225.228 449.451 224.76L499.839 106.075Z" fill="white"></path><path fill-rule="evenodd" clip-rule="evenodd" d="M646.487 229.5C644.029 229.5 642.625 228.974 642.273 227.92L592.763 109.236C592.412 108.533 592.236 107.89 592.236 107.304C592.236 106.251 592.704 105.549 593.641 105.197C594.577 104.729 595.572 104.495 596.626 104.495V101.159H555.718V104.495C556.771 104.495 557.766 104.729 558.703 105.197C559.639 105.549 560.107 106.251 560.107 107.304C560.107 107.89 559.932 108.533 559.58 109.236L510.772 227.92C510.304 228.974 508.9 229.5 506.559 229.5V232.836H541.146V229.5C540.092 229.5 539.214 229.266 538.512 228.798C537.927 228.213 537.634 227.569 537.634 226.867L537.81 226.34L547.466 201.585H604.702L614.358 226.34C614.709 227.042 614.592 227.745 614.007 228.447C613.422 229.149 612.368 229.5 610.847 229.5V232.836H646.487V229.5ZM555.367 181.394L576.084 128.548L596.801 181.394H555.367Z" fill="white"></path><path d="M745.926 207.73V236.523H742.59C742.59 235.821 742.415 235.001 742.064 234.065C741.713 233.246 741.244 232.836 740.659 232.836H657.264V229.5C658.083 229.5 658.903 229.325 659.722 228.974C660.658 228.622 661.127 228.154 661.127 227.569V106.426C661.127 105.841 660.658 105.373 659.722 105.022C658.786 104.671 657.908 104.495 657.088 104.495V101.159H688.691V104.495C687.871 104.495 686.994 104.671 686.057 105.022C685.121 105.373 684.653 105.841 684.653 106.426V211.417H740.659C741.244 211.417 741.713 211.007 742.064 210.188C742.415 209.251 742.59 208.432 742.59 207.73H745.926Z" fill="white"></path><path d="M985.633 104.495C984.813 104.495 983.936 104.671 982.999 105.022C982.063 105.373 981.595 105.841 981.595 106.426V227.569C981.595 228.154 982.004 228.622 982.824 228.974C983.76 229.325 984.638 229.5 985.457 229.5V232.836H954.557V229.5C957.366 229.5 958.244 228.739 957.191 227.218L894.864 141.189V227.569C894.864 228.154 895.332 228.622 896.268 228.974C897.205 229.325 898.141 229.5 899.077 229.5V232.836H866.948V229.5C867.884 229.5 868.821 229.325 869.757 228.974C870.694 228.622 871.162 228.154 871.162 227.569V106.426C871.162 105.841 870.694 105.373 869.757 105.022C868.938 104.671 868.119 104.495 867.299 104.495V101.159H899.077V104.495C896.268 104.495 895.39 105.256 896.444 106.778L960.526 195.615L958.244 106.426C958.244 105.841 957.717 105.373 956.664 105.022C955.728 104.671 954.85 104.495 954.03 104.495V101.159H985.633V104.495Z" fill="white"></path><path d="M1110 124.686V97.648H1106.66C1106.66 98.3503 1106.49 99.1111 1106.14 99.9304C1105.79 100.75 1105.32 101.159 1104.73 101.159H1002.38C1001.79 101.159 1001.32 100.75 1000.97 99.9304C1000.62 99.1111 1000.45 98.3503 1000.45 97.648H997.109V124.686H1000.45C1000.45 123.983 1000.62 123.223 1000.97 122.403C1001.32 121.584 1001.79 121.174 1002.38 121.174H1041.7V227.569C1041.7 228.154 1041.24 228.622 1040.3 228.974C1039.36 229.325 1038.43 229.5 1037.49 229.5V232.836H1069.79V229.5C1068.86 229.5 1067.92 229.325 1066.99 228.974C1066.05 228.622 1065.58 228.154 1065.58 227.569V121.174H1104.73C1105.32 121.174 1105.79 121.584 1106.14 122.403C1106.49 123.223 1106.66 123.983 1106.66 124.686H1110Z" fill="white"></path></svg> 