<?xml version="1.0" encoding="UTF-8"?> <svg xmlns="http://www.w3.org/2000/svg" id="_Слой_1" data-name="Слой_1" version="1.1" viewBox="0 0 200 100"><path d="M114.08,24.98c.78.25.94.46,1.02,1.27.3,3.3-.38,7.03-.11,10.39.22,1.73.06,3.5.11,5.24.3-.38.52-.92.73-1.36,2.27-4.86,4.38-9.81,6.59-14.7.31-.49.6-.69,1.19-.75,4.36-.41,9.35.32,13.78,0,.43-.04.63.24.55.66-3.54,7.74-7.42,15.36-10.9,23.14-.04.49-.03.96.21,1.4l12.04,24.02.08.79h-15.25c-.32,0-.96-1.07-1.06-1.39l-7.92-17.04-.24,18.29-.46.15h-13.57c-.5,0-.64-.38-.74-.79l-.03-47.94c.05-.58.03-1.24.77-1.27h11.44s.34-.1.34-.1h1.43Z"></path><path d="M90.11,24.98c1.54.2,1.03,1.65,1.02,2.69-.03,2.96.03,5.91,0,8.87,0,.19-.15.43-.31.5-.43.19-3.29.03-4.03.05-1.39.03-2.78.14-4.18.11-.89-.02-2.08-.23-2.95-.2-.34.01-.68.24-.75.57.1,1.63-.21,3.59-.02,5.17.07.61.41.71.97.77,2.45.23,5.32-.26,7.75,0,.58.06.72.18.77.76.31,3.36-.24,7.19,0,10.6.03.44-.33.89-.78.96-2.53.18-5.36-.22-7.85,0-.53.05-.8.22-.86.77-.15,1.29-.12,4.38,0,5.71.04.46.18.76.67.85,3.41.25,7.25-.31,10.6,0,1.55.14.98,1.54.96,2.6-.03,2.2-.03,4.42,0,6.63,0,.78.55,2.69-.65,2.7l-26.07-.05c-.66-.21-.52-2.16-.51-2.76,0-.27.11-.51.11-.81.17-15.31-.2-30.66.07-45.95l.36-.36c7.57-.21,15.19.02,22.78-.07.19,0,.33-.11.34-.11.74-.01,1.86-.09,2.55,0Z"></path><path d="M195.66,50.84v.81l-7.14,7.18c-.95.23-.6-.49-.61-1.01-.01-4.62,0-9.24-.01-13.86-.03-.41.39-.45.67-.25l7.08,7.13Z"></path><path d="M168.58,75.07c-.15-.04-.47-.51-.53-.69-.5-1.34-.43-3.67-.99-4.91-.41-.9-2.36-.63-3.27-.61-1.64.03-3.65-.13-5.2,0-.75.06-1,.19-1.22.92-.42,1.4-.42,3.47-.94,4.77-.09.22-.17.41-.41.51l-14.72-.03c-.18-.18-.23-.45-.2-.7l12.49-48.03c.09-.39.29-.71.66-.87l16.48-.05c.42,0,.77.17,1.01.52,3.78,15.99,7.38,32.03,11.15,48.03.08.22.07,1.15-.23,1.15h-14.07ZM162.52,37.91c-.27-.02-.17-.01-.2.15-.16.86-.11,1.77-.21,2.65-.55,4.84-1.75,9.69-2.64,14.48-.04.4.16.68.56.74.66.1,3.62.11,4.27,0,.25-.04.52-.19.56-.45l-2.34-17.56Z"></path><path d="M37.39,49.72l5.74-24.1.35-.21,14.67-.03c.71-.03.59.62.51,1.13l-13.87,47.24c-.17.47-.22.97-.66,1.27l-14.23.06c-.28,0-.56-.07-.68-.34-1.93-7.19-3.57-14.5-5.35-21.74-2.19-8.9-4.43-17.79-6.61-26.69-.11-.79-.14-.96.71-1.03.96-.08,1.94.1,2.86.11,3.79.05,7.6-.09,11.37.05.3.2.38.51.48.84.86,2.91,1.41,6.64,2.04,9.67.95,4.58,1.88,9.16,2.68,13.77Z"></path><path d="M12,58.68l-.44-.02c-2.38-2.33-4.8-4.66-7.06-7.1-.07-.25-.11-.55.05-.78l6.88-6.98c.14-.23.57.04.57.16v14.71Z"></path></svg> 