<svg xmlns="http://www.w3.org/2000/svg" viewBox="0 0 512.00 512.00" role="img" aria-label=""><path fill="#ffffff" stroke="none" d="M255.9999 31.3651C180.4799 62.1424 104.9598 92.9198 29.4398 123.6971C29.4398 183.6638 29.4398 243.6305 29.4398 303.5972C104.9598 334.3735 180.4799 365.1499 255.9999 395.9262C331.5199 365.1496 407.04 334.3729 482.56 303.5962C482.56 243.6295 482.56 183.6628 482.56 123.6961C407.04 92.9191 331.5199 62.1421 255.9999 31.3651ZM255.9999 105.2951C294.7649 105.2951 330.2199 116.2251 356.8899 135.0511C383.6099 153.9151 402 181.7911 402 213.6472C402 245.5032 383.6099 273.3802 356.8899 292.2432C330.2199 311.0672 294.7639 322.0002 255.9999 322.0002C217.2359 322.0002 181.7799 311.0672 155.1099 292.2422C128.3898 273.3802 109.9998 245.5022 109.9998 213.6462C109.9998 181.7911 128.3898 153.9141 155.1099 135.0511C181.7799 116.2271 217.2349 105.2961 255.9999 105.2951ZM255.9999 123.2951C220.6399 123.2951 188.6719 133.3951 165.4899 149.7581C144.1328 164.8341 130.2598 185.2861 128.2598 207.9652C135.4398 193.7651 146.4499 181.1491 160.0899 170.9181C185.0099 152.2281 218.8299 141.0001 255.9999 141.0001C293.1699 141.0001 326.9899 152.2271 351.9099 170.9181C365.5499 181.1481 376.5599 193.7641 383.7399 207.9652C381.7399 185.2851 367.8669 164.8351 346.5099 149.7581C323.3279 133.3941 291.3599 123.2951 255.9999 123.2951ZM255.9999 159.0001C222.4779 159.0001 192.2959 169.2641 170.8899 185.3181C154.8599 197.3422 143.8318 212.3432 139.3048 228.8912C145.2019 221.5412 152.2049 214.8312 160.0899 208.9192C185.0099 190.2281 218.8299 179.0001 255.9999 179.0001C293.1699 179.0001 326.9899 190.2271 351.9099 208.9182C359.7939 214.8312 366.7979 221.5402 372.6949 228.8912C368.1679 212.3442 357.1409 197.3432 341.1089 185.3191C319.7029 169.2641 289.5199 159.0001 255.9999 159.0001ZM255.9999 197.0002C222.4779 197.0002 192.2959 207.2642 170.8899 223.3182C158.3479 232.7252 148.8759 243.9562 143.1758 256.3222C144.0058 257.4152 144.8758 258.4902 145.7659 259.5552C150.1209 255.0302 154.9129 250.8012 160.0899 246.9182C185.0099 228.2282 218.8299 217.0002 255.9999 217.0002C293.1699 217.0002 326.9899 228.2272 351.9099 246.9182C357.0869 250.8012 361.8799 255.0302 366.2339 259.5552C367.1239 258.4902 367.9939 257.4152 368.8239 256.3222C363.1239 243.9562 353.6519 232.7252 341.1089 223.3182C319.7029 207.2642 289.5199 197.0002 255.9999 197.0002ZM29.4398 323.0332C29.4398 346.6719 29.4398 370.3106 29.4398 393.9492C101.9598 423.5036 174.4799 453.0579 246.9999 482.6123C246.9999 458.9736 246.9999 435.3349 246.9999 411.6962C174.4799 382.1419 101.9598 352.5875 29.4398 323.0332ZM482.56 323.0332C410.04 352.5889 337.5199 382.1446 264.9999 411.7002C264.9999 435.3379 264.9999 458.9756 264.9999 482.6133C337.5199 453.0586 410.04 423.5039 482.56 393.9492C482.56 370.3102 482.56 346.6712 482.56 323.0332Z"/></svg>
