<?xml version="1.0" encoding="UTF-8"?> <svg xmlns="http://www.w3.org/2000/svg" xmlns:xlink="http://www.w3.org/1999/xlink" version="1.1" id="Layer_1" x="0px" y="0px" viewBox="0 0 572 206.7" style="enable-background:new 0 0 572 206.7;" xml:space="preserve"> <style type="text/css"> .st0{fill-rule:evenodd;clip-rule:evenodd;fill:#2D399D;} .st1{fill-rule:evenodd;clip-rule:evenodd;fill:#D3000E;} .st2{fill-rule:evenodd;clip-rule:evenodd;fill:#7EC4EB;} .st3{fill:#008743;} .st4{fill:#BDBEC1;} .st5{fill:#254A9A;} .st6{fill:url(#path2982_00000103232123281301086330000009622620380152315522_);} .st7{fill:#161616;} .st8{fill:#F70013;} </style> <g> <path class="st3" d="M438.1,127.4c-3.8,0-7.2,0-10.5,0c-0.9,0-1.3-0.6-1.9-1.2c-6.8-6.7-13.5-13.6-20.4-20.2c-2-1.9-0.9-4-1.1-6.1 c0-0.4,0.3-0.6,0.6-0.6c2.3,0.1,4.5-0.7,6.5,1.4c2.6,2.9,5.6,5.5,8.1,8.2c1.5,1.6,2.2,1.4,3.2-0.5c4.7-9.2,1.9-20.4-6.9-26.1 c-8.7-5.9-20.6-4.3-27.4,3.7c-5.2,6.3-6.6,13.4-3.4,21c3.2,7.5,9.2,12.3,17.3,12.3c5.6,0,8.4,2.7,11.6,6.4 c-6.2,2.3-12.3,2.3-18.5,0.4c-15.8-4.9-24-22.3-17.7-37.6c6.4-15.4,24.9-22,39.8-14.2c14.7,7.7,19.7,26.1,10.6,40 c-1.1,1.7-0.8,2.6,0.5,3.7C431.8,121,434.7,124,438.1,127.4z"></path> <path class="st4" d="M162.4,120.7c-8.3,9.2-21.9,6.9-26.5-4c-3-7-2.5-13.9,1.1-20.6c4.9-9.3,19.3-12.2,26.1-2.7 c0.7-0.4,0.4-1.1,0.4-1.5c-0.3-2.6,0.6-3.4,3.3-3.3c2.3,0.1,3.1,0.5,3.1,3c-0.2,10.2,0,20.5-0.1,30.7c-0.1,5-0.6,10.1-3.8,14.4 c-2.6,3.5-6.2,5-10.2,6c-5.4,1.1-10.6,0.6-15.7-1.2c-2.5-0.9-3-4.2-1-6c0.8-0.8,1.6,0,2.4,0.3c4,1.6,8.1,2.6,12.6,1.5 c4.9-1.1,8-4.5,8.5-9.5C162.6,125.5,162.4,123.3,162.4,120.7z M162.5,107.3c0-1.4,0-2.6,0-3.7c0-5.1-3-9.3-7.3-10.3 c-5.1-1.2-9.9,0.9-12.2,5.8c-2.2,4.5-2.5,9.3-1,14c1.5,5.1,5.8,8.1,10.7,8c4.5-0.1,8.2-3.2,9.5-7.7 C162.7,111.2,162.3,109.1,162.5,107.3z"></path> <path class="st4" d="M255.5,108.8c-3.8,0-7.6,0-11.3,0c-1.6,0-2.1,0.4-1.7,2.2c1.3,7.4,5.4,10.8,12.9,10.9c3,0,6.1,0,9-1.1 c0.8-0.3,1.9-0.7,2,0.6c0.1,1.3,1.9,2.9,0,4.1c-7.6,5-22.7,1.9-27.7-5.9c-6-9.3-3.2-24,5.8-29.4c9.3-5.7,23-2.9,24.8,12 c0.8,6.7,0.6,6.7-6.1,6.6C260.5,108.8,258,108.8,255.5,108.8L255.5,108.8z M252.3,103.6c2.8,0,5.6,0,8.2,0c0.9,0,1.6-0.1,1.7-1.3 c0.4-3.9-3.3-9-7.1-9.6c-6.2-1-11.3,2.7-12.6,8.7c-0.3,1.6,0.3,2.2,1.9,2.1C247.2,103.5,249.8,103.6,252.3,103.6z"></path> <path class="st4" d="M218.7,108.8c-3.8,0-7.6,0.1-11.4,0c-1.6,0-2.1,0.6-2,2.2c0.3,5.7,5.1,10.6,10.8,10.8 c3.8,0.1,7.6,0.3,11.2-1.2c1.2-0.5,1.6-0.1,1.9,1.1c0.9,4,1.6,3.4-2.6,4.6c-5.5,1.6-11,1.9-16.5,0.1c-6.5-2.2-10.2-7-11.3-13.5 c-1-5.9-0.3-11.5,2.7-16.9c5.2-9.3,19.2-11.4,26.1-3.9c3.9,4.3,4.8,9.7,4.6,15.3c0,1.3-0.9,1.4-2,1.4 C226.5,108.8,222.6,108.8,218.7,108.8L218.7,108.8z M215.4,103.6c2.8,0,5.6,0,8.2,0c0.8,0,2,0.1,1.7-1.2c-0.5-4.6-3-9.8-9-9.8 c-5.6,0.1-9.4,3.1-10.8,8.7c-0.4,1.7-0.2,2.4,1.6,2.3C210.1,103.5,212.7,103.6,215.4,103.6z"></path> <path class="st4" d="M356.8,108.8c-3.7,0-7.4,0.1-11.1,0c-2-0.1-2.4,0.7-2.2,2.5c0.6,6,5.4,10.4,11.4,10.5 c3.6,0.1,7.2,0.1,10.7-1.2c1-0.4,1.4-0.2,1.9,0.9c1,3.5,0.9,4-2.6,4.8c-5.6,1.3-11.2,1.9-16.8-0.1c-6.4-2.3-10-7-11-13.5 c-1-5.9-0.4-11.5,2.7-16.9c5.2-9.3,19.2-11.4,26.1-3.8c3.9,4.3,4.8,9.7,4.6,15.3c-0.1,1.4-1,1.3-2,1.3 C364.6,108.8,360.7,108.8,356.8,108.8L356.8,108.8z M353.8,103.6c2.8,0,5.6,0,8.2,0c0.8,0,1.6,0,1.5-1.1c-0.4-4.4-2.9-9.8-8.6-9.8 c-5.9,0-10,3.3-11.2,9.2c-0.3,1.5,0.2,1.9,1.4,1.7C348.1,103.6,351,103.6,353.8,103.6z"></path> <path class="st4" d="M281.5,94.5c6-6.9,12.8-8.6,19.2-5.2c4.9,2.6,6.9,7.1,7.1,12.3c0.3,7.7,0.1,15.4,0.1,23.2 c0,1.5-0.4,2.2-2.1,2.1c-6.1-0.1-5.1,0.5-5.1-5c0-6.3,0-12.6,0-18.8c-0.1-6-3.4-9.7-8.4-9.7c-5.4,0-9.8,4.5-9.8,10 c0,6.9-0.1,13.8,0,20.6c0,2.3-0.6,3-3,2.9c-5-0.2-4.2,0.5-4.3-4.2c-0.1-10.9-0.1-21.8-0.2-32.7c0-0.2-0.1-0.6,0-0.7 c1.5-1,3.3-0.3,4.9-0.5c1.2-0.1,1.4,0.7,1.4,1.6C281.4,91.5,281.5,92.6,281.5,94.5z"></path> <path class="st4" d="M317.7,106.1c0-3.4-0.1-6.7,0-10.1c0.1-1.9-0.6-2.4-2.4-2.3c-3.3,0.1-4.2-1.3-3.4-4.5c0.4-1.6,1.9-1.1,2.8-0.9 c2.6,0.5,3.3-0.4,3-2.9c-0.1-1.2-0.7-3.1,0.5-3.8c1.6-1,3.7-1.4,5.6-2c1-0.3,1,0.7,1,1.3c0,2,0,3.9,0,6c0,1.3,0.3,1.7,1.9,1.6 c2.1-0.3,4.1-0.2,6.2-0.2c2.7,0,1.6,2.1,1.9,3.4c0.2,1.4-0.1,2.3-1.9,2.2c-1.9-0.1-3.8,0.1-5.7-0.1c-1.9-0.1-2.4,0.6-2.3,2.4 c0.1,6.5,0,12.9,0,19.3c0,4.6,1.7,6.2,6.3,6.2c1.4,0,3.1-0.6,3.2,2c0,2.3-0.5,3.6-3,3.6c-2.4,0-4.8,0.4-7.2-0.4 c-5.2-1.7-6.1-6.2-6.4-10.7C317.6,112.8,317.7,109.5,317.7,106.1L317.7,106.1z"></path> <path class="st4" d="M184.8,95.3c1.9-3.7,4.1-6.4,7.9-7.4c0.9-0.3,1.9-0.3,2.8-0.3c1.4-0.1,2.1,0.6,2,2c0,0.5-0.1,1,0,1.5 c0.3,2.4-0.3,3.3-3,3.2c-4.6-0.2-8.3,3.8-9,9c-0.7,6.5-0.2,13-0.4,19.6c0,1.2,0.8,3.2-0.7,3.7c-1.6,0.5-3.6,0.3-5.4,0.1 c-1.2-0.2-0.7-1.5-0.7-2.4c0-9.6,0-19,0-28.6c0-1.1,0-2.3,0-3.4c-0.1-3.8-0.1-3.7,3.6-3.7c1.4,0,2.3,0.2,2.3,1.9 C184.3,91.9,184.6,93.3,184.8,95.3z"></path> </g> </svg> 