<?xml version="1.0" encoding="UTF-8"?> <svg xmlns="http://www.w3.org/2000/svg" xmlns:xlink="http://www.w3.org/1999/xlink" version="1.1" id="Layer_1" x="0px" y="0px" viewBox="0 0 572 206.7" style="enable-background:new 0 0 572 206.7;" xml:space="preserve"> <style type="text/css"> .st0{fill-rule:evenodd;clip-rule:evenodd;fill:#2D399D;} .st1{fill-rule:evenodd;clip-rule:evenodd;fill:#D3000E;} .st2{fill-rule:evenodd;clip-rule:evenodd;fill:#7EC4EB;} .st3{fill:#008743;} .st4{fill:#BDBEC1;} .st5{fill:#254A9A;} .st6{fill:url(#path2982_00000165205949565063604040000005761229651875496871_);} .st7{fill:#161616;} .st8{fill:#F70013;} </style> <g> <g> <path class="st7" d="M216,73.5c2.8,0,5.4,0.5,7.8,1.4c2.4,0.9,4.6,2.2,6.3,4.1c1.8,1.7,3.2,4.1,4.2,6.8c1,2.7,1.5,5.9,1.5,9.5 c0,3.2-0.5,6.1-1.3,8.8c-0.9,2.7-2,5-3.7,7c-1.6,1.9-3.7,3.5-6.2,4.6c-2.4,1.1-5.4,1.6-8.7,1.6h-18.9V73.5H216z M215.3,109.2 c1.4,0,2.7-0.2,4.1-0.7c1.4-0.5,2.4-1.3,3.5-2.2c1-1.1,1.8-2.4,2.4-4.1c0.6-1.6,0.9-3.7,0.9-6.1c0-2.2-0.2-4.2-0.6-6 c-0.5-1.8-1.2-3.3-2.1-4.6c-1-1.3-2.2-2.2-3.9-2.9s-3.6-1-6-1h-6.8v27.6L215.3,109.2L215.3,109.2z"></path> <path class="st7" d="M247.5,85.6v5.9h0.1c0.5-1,1-1.8,1.6-2.7c0.7-0.9,1.5-1.5,2.3-2.1c0.9-0.6,1.8-1.1,2.9-1.4 c1-0.3,2.1-0.5,3.2-0.5c0.6,0,1.3,0.1,1.8,0.3v8.1c-0.5-0.1-0.9-0.2-1.5-0.2S257,93,256.4,93c-1.5,0-2.9,0.3-4.1,0.8 c-1.1,0.5-2,1.3-2.7,2.1c-0.7,1-1.2,2-1.4,3.2c-0.3,1.3-0.5,2.6-0.5,4v14.3h-8.7V85.6H247.5L247.5,85.6z"></path> <path class="st7" d="M263.7,107.8v9.5h-9.6v-9.5H263.7z"></path> <path class="st7" d="M286,73.5v16.8h17.7V73.5h9.6v43.7h-9.6V98.4H286v18.9h-9.6V73.5H286z"></path> <path class="st7" d="M318.4,90.3c0.9-1.4,2-2.4,3.4-3.2c1.4-0.9,2.9-1.4,4.6-1.7c1.7-0.4,3.5-0.5,5.2-0.5c1.5,0,3.2,0.1,4.8,0.3 c1.6,0.2,3.1,0.7,4.5,1.4c1.4,0.7,2.4,1.5,3.3,2.7c0.9,1.2,1.4,2.7,1.4,4.6v16.6c0,1.4,0.1,2.8,0.3,4.1c0.2,1.4,0.5,2.3,0.9,2.9 h-8.8c-0.2-0.5-0.3-1-0.5-1.5c-0.1-0.5-0.2-1.1-0.2-1.5c-1.4,1.4-3.1,2.4-4.9,3c-1.8,0.6-3.8,0.9-5.8,0.9c-1.5,0-2.9-0.2-4.3-0.5 c-1.4-0.4-2.4-1-3.4-1.7c-1-0.8-1.7-1.7-2.3-2.9c-0.5-1.3-0.9-2.6-0.9-4.2c0-1.8,0.3-3.2,1-4.5c0.6-1.2,1.5-2.1,2.4-2.8 c1-0.7,2.1-1.3,3.4-1.5c1.4-0.4,2.6-0.6,3.9-0.9c1.4-0.2,2.6-0.4,3.9-0.5s2.3-0.3,3.4-0.5c1-0.3,1.7-0.6,2.3-1.1 c0.6-0.5,0.9-1.2,0.8-2c0-1-0.2-1.6-0.5-2.2c-0.3-0.5-0.8-1-1.3-1.4c-0.5-0.3-1.1-0.5-1.8-0.6c-0.7-0.1-1.4-0.2-2.1-0.2 c-1.7,0-3.1,0.4-4.1,1.1c-1,0.8-1.5,1.9-1.7,3.7h-8.7C317,93.3,317.4,91.5,318.4,90.3z M335.6,102.5c-0.6,0.2-1.2,0.3-1.8,0.5 c-0.6,0.1-1.4,0.2-2,0.3c-0.7,0.1-1.4,0.2-2.1,0.3c-0.6,0.1-1.4,0.3-1.9,0.5s-1.3,0.5-1.6,0.9c-0.5,0.4-0.9,0.8-1.2,1.4 c-0.3,0.5-0.5,1.3-0.5,2c0,0.8,0.2,1.4,0.5,1.9c0.3,0.5,0.7,1,1.2,1.3c0.5,0.3,1.1,0.5,1.7,0.6c0.6,0.1,1.4,0.2,2,0.2 c1.7,0,3.1-0.3,4-0.9c1-0.6,1.6-1.3,2.1-2c0.5-0.8,0.8-1.5,0.9-2.4c0.1-0.9,0.2-1.5,0.2-1.9v-3.2 C336.6,102.1,336.1,102.4,335.6,102.5z"></path> <path class="st7" d="M358.1,73.8v16.5h0.2c1.1-1.8,2.5-3.2,4.2-4c1.7-0.9,3.4-1.3,5-1.3c2.3,0,4.3,0.3,5.7,1 c1.5,0.6,2.7,1.5,3.5,2.6c0.9,1.1,1.5,2.4,1.8,4.1c0.4,1.6,0.5,3.4,0.5,5.3v19.5h-8.7V99.6c0-2.6-0.5-4.6-1.3-5.8 c-0.9-1.3-2.2-1.9-4.4-1.9c-2.3,0-4.1,0.7-5.1,2.1c-1.1,1.5-1.5,3.7-1.5,6.9v16.6h-8.7V73.7L358.1,73.8L358.1,73.8L358.1,73.8z"></path> <path class="st7" d="M390.8,85.6v4.5h0.2c1.1-1.8,2.5-3.2,4.3-4c1.7-0.9,3.6-1.3,5.4-1.3c2.3,0,4.3,0.3,5.7,1 c1.5,0.6,2.7,1.5,3.5,2.6c0.9,1.1,1.5,2.4,1.8,4.1c0.4,1.6,0.5,3.4,0.5,5.3v19.5h-8.7V99.4c0-2.6-0.5-4.6-1.3-5.8 c-0.9-1.4-2.2-1.9-4.4-1.9c-2.3,0-4.1,0.7-5.1,2.1c-1.1,1.5-1.5,3.7-1.5,6.9v16.6h-8.7V85.6H390.8L390.8,85.6z"></path> <path class="st7" d="M412.6,85c2.6,0,4.6-2,4.6-4.6c0-2.5-2-4.6-4.6-4.6c-2.5,0-4.6,1.9-4.6,4.6C408.1,83,410.1,85,412.6,85 L412.6,85z M412.6,76.6c2.1,0,3.9,1.6,3.9,3.8s-1.7,3.8-3.9,3.8c-2.1,0-3.9-1.6-3.9-3.8C408.8,78.4,410.6,76.6,412.6,76.6 L412.6,76.6z M413.4,80.7c0.7,0,1.4-0.4,1.4-1.4c0-1.1-0.9-1.4-1.8-1.4h-2.1v5h0.8v-2.3h1l1.4,2.3h0.9L413.4,80.7L413.4,80.7z M412.9,78.6c0.6,0,1.2,0,1.2,0.7s-1,0.6-1.6,0.6h-0.8v-1.3H412.9L412.9,78.6z"></path> </g> <path class="st7" d="M158.4,129.9h-3.6v-1.1h8.4v1.1h-3.6v11.2h-1.3V129.9L158.4,129.9z"></path> <path class="st7" d="M173.6,136.8c0,3.6-2.6,4.5-4.5,4.5c-1.8,0-4.5-0.9-4.5-4.5v-7.9h1.3v7.9c0,2,1.1,3.4,3.2,3.4s3.2-1.4,3.2-3.4 v-7.9h1.3L173.6,136.8L173.6,136.8z M167,126.3h1.4v1.5H167V126.3z M170,126.3h1.4v1.5H170V126.3z"></path> <path class="st7" d="M176.6,128.9h3.2c2.1,0,3.6,1,3.6,3.2c0,1.5-1.3,2.6-2.7,2.8l0,0c1,0.1,1.3,0.6,1.5,1.5l2.1,4.7H183l-1.8-4.2 c-0.7-1.5-1.3-1.6-2.3-1.6h-1v5.8h-1.3L176.6,128.9L176.6,128.9z M177.8,134.3h1.3c1.4,0,3.1-0.5,3.1-2.2c0-2-1.4-2.1-3.1-2.1h-1.3 V134.3L177.8,134.3z"></path> <path class="st7" d="M186.1,128.9h2.9c2,0,3.9,0.7,3.9,3c0,1.5-0.8,2.4-2.2,2.8l0,0c1.5,0.3,2.6,1.4,2.6,2.9c0,2.7-2.1,3.5-4.7,3.5 h-2.4L186.1,128.9L186.1,128.9z M187.4,140h1.3c1.6,0,3.5-0.5,3.5-2.3c0-2.1-1.8-2.4-3.7-2.4h-1.1V140z M187.4,134.2h1.4 c1.3,0,3-0.3,3-2.2c0-1.8-1.6-2-2.7-2h-1.6V134.2z"></path> <path class="st7" d="M199.7,128.9h1.4l4.8,12.2h-1.3l-1.4-3.2h-6.1l-1.4,3.2h-1.3L199.7,128.9z M200.3,130l-2.7,6.8h5.3L200.3,130z M198.1,126.3h1.4v1.5h-1.4V126.3z M201.1,126.3h1.4v1.5h-1.4V126.3z"></path> <path class="st7" d="M207.4,128.9h1.5l6.2,10.7l0,0v-10.7h1.3v12.2h-1.6l-6.1-10.6h-0.1v10.6h-1.3L207.4,128.9L207.4,128.9z"></path> <path class="st7" d="M219.2,128.9h3.1c4.4,0,6.1,2.5,6.1,6.1c0,4.5-2.9,6.1-7,6.1h-2.1C219.2,141.1,219.2,128.9,219.2,128.9z M220.4,140h1c3.5,0,5.7-1.4,5.7-5.1s-2.2-4.9-4.9-4.9h-1.8L220.4,140L220.4,140z"></path> <path class="st7" d="M230.9,128.9h6v1.1h-4.8v4.4h4.6v1.1h-4.6v4.7h4.9v1.1h-6.2L230.9,128.9L230.9,128.9z"></path> <path class="st7" d="M239.7,128.9h3.2c2.1,0,3.6,1,3.6,3.2c0,1.5-1.3,2.6-2.7,2.8l0,0c1,0.1,1.3,0.6,1.5,1.5l2.1,4.7h-1.4l-1.8-4.2 c-0.7-1.5-1.3-1.6-2.3-1.6h-1v5.8h-1.3C239.7,141.1,239.7,128.9,239.7,128.9z M240.9,134.3h1.3c1.4,0,3.1-0.5,3.1-2.2 c0-2-1.4-2.1-3.1-2.1h-1.3V134.3L240.9,134.3z"></path> <path class="st7" d="M249.6,139.7h1.4v1.5h-1.4V139.7z"></path> <path class="st7" d="M259.2,128.9h1.8l4.5,10.7l4.5-10.7h1.7v12.2h-1.3v-11l0,0l-4.5,11h-1.1l-4.6-11l0,0v11h-1.3L259.2,128.9 L259.2,128.9z"></path> <path class="st7" d="M278.4,128.9h1.4l4.8,12.2h-1.3l-1.4-3.2h-6.1l-1.4,3.2h-1.2L278.4,128.9z M279,130l-2.7,6.8h5.3L279,130z"></path> <path class="st7" d="M286.2,128.9h3.1c4.4,0,6.1,2.5,6.1,6.1c0,4.5-2.9,6.1-7,6.1h-2.1L286.2,128.9L286.2,128.9z M287.5,140h1 c3.5,0,5.7-1.4,5.7-5.1s-2.2-4.9-4.9-4.9h-1.8L287.5,140L287.5,140z"></path> <path class="st7" d="M298,128.9h6v1.1h-4.7v4.4h4.6v1.1h-4.6v4.7h4.9v1.1H298L298,128.9L298,128.9z"></path> <path class="st7" d="M311.4,128.9h1.3v12.2h-1.3V128.9z"></path> <path class="st7" d="M315.4,128.9h1.5l6.2,10.7l0,0v-10.7h1.3v12.2h-1.6l-6.1-10.6l0,0v10.6h-1.3V128.9L315.4,128.9z"></path> <path class="st7" d="M340.4,135.5h-2.8v-1.1h4.1v6.1c-1.3,0.5-2.4,0.8-3.8,0.8c-3.9,0-6.1-2.5-6.1-6.3c0-3.7,2.3-6.3,6.1-6.3 c1,0,2.4,0.2,3.2,0.6l-0.2,1.1c-1-0.5-2-0.6-3.2-0.6c-3.2,0-4.9,2.2-4.9,5.2c0,3.1,1.7,5.2,4.9,5.2c0.8,0,2-0.1,2.6-0.5 L340.4,135.5L340.4,135.5L340.4,135.5z"></path> <path class="st7" d="M344.6,128.9h6v1.1h-4.7v4.4h4.6v1.1h-4.6v4.7h4.9v1.1h-6.2L344.6,128.9L344.6,128.9z"></path> <path class="st7" d="M353.4,128.9h3.2c2.1,0,3.6,1,3.6,3.2c0,1.5-1.3,2.6-2.7,2.8l0,0c1,0.1,1.3,0.6,1.5,1.5l2.1,4.7h-1.4l-1.8-4.2 c-0.7-1.5-1.3-1.6-2.3-1.6h-1v5.8h-1.3L353.4,128.9L353.4,128.9z M354.6,134.3h1.3c1.4,0,3.1-0.5,3.1-2.2c0-2-1.4-2.1-3.1-2.1h-1.3 V134.3L354.6,134.3z"></path> <path class="st7" d="M363.1,128.9h1.8l4.5,10.7l4.5-10.7h1.7v12.2h-1.3v-11l0,0l-4.5,11h-1.1l-4.6-11l0,0v11H363L363.1,128.9 L363.1,128.9z"></path> <path class="st7" d="M382.4,128.9h1.4l4.8,12.2h-1.3l-1.4-3.2h-6.1l-1.4,3.2h-1.2L382.4,128.9z M383,130l-2.7,6.8h5.3L383,130z"></path> <path class="st7" d="M390.1,128.9h1.5l6.2,10.7l0,0v-10.7h1.3v12.2h-1.6l-6.1-10.6l0,0v10.6h-1.3V128.9L390.1,128.9z"></path> <path class="st7" d="M405.2,135.9l-4.6-7.1h1.4l3.7,6l3.9-6h1.4l-4.6,7.1v5.2h-1.3L405.2,135.9L405.2,135.9z"></path> <path class="st7" d="M411.3,139.7h1.4v1.5h-1.4V139.7z"></path> <g> <g> <path class="st7" d="M185.4,73.5h-27.1c-1.9,0-3.5,1.6-3.5,3.6v37.4c0,1.9,1.4,3.6,3.4,3.6h27.3c1.9,0,3.6-1.5,3.6-3.6V77.1 C189.1,75.1,187.5,73.5,185.4,73.5z M162.1,115.6l5.7-2.4l1,2.4H162.1z M181.6,102.9c3.5-5.8,2-15.2-3.2-15.4 c-6-0.3-6.8,6.5-6.5,8.8c0,0.1,0.2,0.2,0.3,0c-0.3-2.3,0.6-8.6,5.8-8.4c5.1,0.2,5.8,8.6,2.6,12.3c0.8-1.8,0.8-7.4-3.5-7.7 c-2.7-0.2-4.4,3-4.3,5.4c0,0.2,0.2,0.2,0.4,0c-0.1-2.4,1.5-5.3,4-5c3.1,0.3,3.2,4.4,2,5.6c-0.8-1.5-1.5-1.5-2.3-1.4 c-2.5,0.4-1.4,4.5-2.7,7.2c-2.5,4.7-5.9,4.6-6.8,4.6v3.3l-8.9-22l3.7-3c-0.5-0.5-0.8-1-0.8-1.6c0-0.6,0.2-1.1,0.6-1.5l0,0h-1.4 l2-1.8c-3.2-4.5,1.5-6.1,1.5-6.1v1.8l3.2-1.8v1.8l3.4-1.8c0,0,0,3.9-3.4,5.7v25.9c7.1-1.6,1.1-12.1,1.1-16.4 c0-7.4,4.5-10,8.9-9.5C189.9,83.4,187.7,98.3,181.6,102.9z"></path> <path class="st7" d="M163.9,83.7c-1.1,0-1.8,0.9-1.8,1.8c0,1.1,0.9,1.8,1.8,1.8c1.1,0,1.8-0.9,1.8-1.8 C165.9,84.6,165,83.7,163.9,83.7z"></path> </g> </g> </g> </svg> 