<?xml version="1.0" encoding="UTF-8"?> <svg xmlns="http://www.w3.org/2000/svg" xmlns:xlink="http://www.w3.org/1999/xlink" version="1.1" id="Layer_1" x="0px" y="0px" viewBox="0 0 572 206.7" style="enable-background:new 0 0 572 206.7;" xml:space="preserve"> <style type="text/css"> .st0{fill-rule:evenodd;clip-rule:evenodd;fill:#2D399D;} .st1{fill-rule:evenodd;clip-rule:evenodd;fill:#D3000E;} .st2{fill-rule:evenodd;clip-rule:evenodd;fill:#7EC4EB;} .st3{fill:#008743;} .st4{fill:#BDBEC1;} .st5{fill:#254A9A;} .st6{fill:url(#path2982_00000151527417863548978610000009819221814460713112_);} .st7{fill:#161616;} .st8{fill:#F70013;} </style> <g> <path class="st1" d="M368.6,130.5h32.7l16.4-28.4l-16.4-28.4h-32.7l-16.4,28.4L368.6,130.5L368.6,130.5z M381.3,108.5V124h-8.1 l-12.6-21.8l12.6-21.8h8.1v15.5h7.2V80.3h8.2l12.6,21.8L396.7,124h-8.2v-15.5H381.3L381.3,108.5z"></path> <polygon class="st2" points="126.8,130.5 126.8,73.8 142.3,73.8 142.3,93 152.6,93 152.6,73.8 168.2,73.8 168.2,130.5 152.6,130.5 152.6,109.8 142.3,109.8 142.3,130.5 "></polygon> <path class="st2" d="M199.3,131.6H199h-0.6H198h-0.5l-0.5-0.1l-0.5-0.1h-0.5l-0.5-0.1l-0.5-0.1h-0.5l-0.5-0.1l-0.5-0.1l-0.5-0.1 l-0.5-0.1l-0.5-0.1l-0.5-0.1l-0.5-0.1l-0.5-0.1l-0.5-0.2l-0.5-0.2l-0.5-0.1l-0.5-0.2l-0.5-0.2l-0.8-0.1l-0.5-0.2l-0.5-0.2l-0.5-0.2 l-0.5-0.2l-0.5-0.2l-0.5-0.2l-0.5-0.4L184,127l-0.5-0.2l-0.5-0.4l-0.4-0.4l-0.5-0.2l-0.4-0.4l-0.4-0.4l-0.4-0.4l-0.4-0.4l-0.4-0.4 l-0.4-0.4l-0.4-0.4l-0.4-0.4l-0.4-0.4l-0.4-0.4l-0.4-0.4l-0.4-0.4l-0.4-0.4l-0.4-0.4l-0.4-0.4l-0.4-0.4l-0.4-0.4l-0.2-0.4l-0.4-0.5 l-0.2-0.5l-0.2-0.5l-0.2-0.5l-0.2-0.4l-0.2-0.5l-0.2-0.5l-0.2-0.5l-0.2-0.5l-0.2-0.5l-0.2-0.5l-0.2-0.5l-0.2-0.5l-0.2-0.5l-0.2-0.5 l-0.2-0.5l-0.1-0.5l-0.1-0.5l-0.1-0.5l-0.1-0.5l-0.1-0.5l-0.1-0.5l-0.1-0.5l-0.1-0.5l-0.1-0.5l-0.1-0.5l-0.1-0.5l-0.1-0.5l-0.1-0.5 v-0.5l-0.1-0.5v-0.6v-0.5v-0.5v-0.6v-0.5v-0.5v-0.5v-0.5v-0.5l0.1-0.5v-0.5v-0.5l0.1-0.5l0.1-0.5l0.1-0.5l0.1-0.5l0.1-0.5l0.1-0.5 l0.1-0.5l0.1-0.5l0.1-0.5l0.1-0.5l0.1-0.5l0.1-0.5l0.2-0.5l0.1-0.5l0.2-0.5l0.2-0.5l0.2-0.5l0.2-0.5l0.2-0.5l0.2-0.5l0.2-0.5 l0.2-0.5l0.2-0.5l0.4-0.5L175,87l0.4-0.4l0.2-0.5l0.4-0.4l0.2-0.5l0.4-0.4l0.4-0.5l0.4-0.4l0.4-0.4l0.4-0.4l0.4-0.4l0.4-0.4 l0.4-0.4l0.4-0.4l0.4-0.4l0.4-0.4l0.4-0.4l0.4-0.4l0.4-0.4l0.4-0.4l0.4-0.4l0.4-0.2l0.4-0.4l0.5-0.4l0.4-0.2l0.5-0.4l0.5-0.2 l0.4-0.4l0.5-0.2l0.4-0.2l0.5-0.2l0.5-0.2l0.5-0.2l0.5-0.2l0.5-0.2l0.5-0.2l0.5-0.2l0.5-0.1l0.5-0.2l0.5-0.1l0.5-0.1l0.5-0.1 l0.5-0.1l0.5-0.1l0.5-0.1l0.5-0.1l0.5-0.1l0.5-0.1l0.5-0.1l0.5-0.1l0.5-0.1l0.5-0.1h0.5l0.6-0.1h0.5h0.5h0.5h0.5h0.4h0.5h0.5h0.5 l0.5,0.1h0.5l0.5,0.1l0.6,0.1l0.5,0.1l0.5,0.1l0.5,0.1l0.5,0.1l0.5,0.1l0.5,0.1l0.5,0.1l0.5,0.1l0.5,0.1l0.5,0.1l0.5,0.2l0.5,0.1 l0.5,0.2l0.5,0.1l0.5,0.2l0.5,0.2l0.5,0.2l0.5,0.2l0.5,0.2l0.5,0.2l0.5,0.2l0.5,0.2l0.5,0.4L214,78l0.5,0.4l0.5,0.2l0.4,0.2 l0.5,0.4l0.4,0.4l0.4,0.4l0.4,0.4l0.4,0.4l0.4,0.4l0.4,0.4l0.4,0.4l0.4,0.4l0.4,0.4l0.4,0.4l0.4,0.4l0.4,0.4l0.4,0.4l0.4,0.4 l0.4,0.4l0.4,0.5l0.4,0.4l0.4,0.4l0.2,0.4l0.4,0.5l0.2,0.4l0.2,0.5l0.4,0.5l0.2,0.5l0.2,0.5l0.2,0.4l0.2,0.5l0.2,0.5l0.2,0.5 l0.2,0.5l0.2,0.5l0.2,0.5l0.2,0.5l0.1,0.5l0.2,0.5l0.1,0.5l0.1,0.5l0.1,0.5l0.1,0.5l0.1,0.5l0.1,0.5l0.1,0.5l0.1,0.5l0.1,0.5 l0.1,0.5l0.1,0.5v0.5v0.5l0.1,0.5v0.5v0.5v0.5v0.6v0.5v0.5v0.6v0.5v0.5l-0.1,0.5v0.5l-0.1,0.5l-0.1,0.5l-0.1,0.5l-0.1,0.5l-0.1,0.5 l-0.1,0.5l-0.1,0.5l-0.1,0.5l-0.1,0.5l-0.1,0.5l-0.1,0.5l-0.1,0.5l-0.1,0.5l-0.2,0.5l-0.1,0.5l-0.2,0.5l-0.2,0.5L225,114l-0.2,0.5 l-0.2,0.5l-0.2,0.5l-0.2,0.4l-0.2,0.5l-0.2,0.5l-0.2,0.5l-0.2,0.5l-0.2,0.4l-0.4,0.5l-0.2,0.4l-0.4,0.5l-0.4,0.4l-0.4,0.4l-0.4,0.4 l-0.4,0.4l-0.4,0.4l-0.4,0.4l-0.4,0.4l-0.4,0.4l0.6,0.8l-0.4,0.4l-0.4,0.4l-0.4,0.4l-0.4,0.4l-0.4,0.4l-0.4,0.4l-0.5,0.4l-0.4,0.4 l-0.4,0.2l-0.4,0.4l-0.5,0.4l-0.4,0.4l-0.5,0.2l-0.5,0.2l-0.5,0.2l-0.5,0.4l-0.5,0.2l-0.5,0.2l-0.5,0.2l-0.5,0.2l-0.5,0.2l-0.5,0.2 l-0.5,0.2l-0.5,0.1l-0.5,0.1l-0.5,0.2l-0.5,0.1l-0.5,0.1l-0.5,0.1l-0.5,0.1l-0.5,0.1l-0.5,0.1l-0.6,0.1l-0.5,0.1l-0.5,0.1l-0.5,0.1 h-0.5l-0.5,0.1h-0.5l-0.5,0.1h-0.5h-0.6h-0.5L199.3,131.6L199.3,131.6z M199.3,116.3l1.2-0.1l1.2-0.2l1.2-0.4l1.1-0.4l1.2-0.5 l1.1-0.6l0.9-0.7l0.9-0.7l0.8-0.8l0.8-0.9l0.7-0.9l0.6-1.1l0.6-1.1l0.4-1.1l0.4-1.2l0.2-1.2l0.1-1.2V102l-0.1-1.2l-0.1-1.2 l-0.4-1.2l-0.4-1.1l-0.5-1.1l-0.6-1.1l-0.7-0.9l-0.8-0.9l-0.8-0.8l-0.9-0.8l-0.9-0.7l-1.1-0.6l-1.1-0.6l-1.1-0.5L202,89l-1.2-0.2 l-1.2-0.1h-0.5l-1.2,0.1l-1.2,0.2l-1.2,0.4l-1.1,0.4l-1.1,0.5l-1.1,0.6l-0.9,0.7l-0.9,0.8l-0.8,0.8l-0.8,0.9l-0.7,0.9l-0.6,1.1 l-0.6,1.1l-0.5,1.1l-0.4,1.2l-0.2,1.2l-0.1,1.2l-0.1,1.2l0.1,1.2l0.2,1.2l0.4,1.2l0.4,1.1l0.5,1.1l0.6,1.1l0.7,0.9l0.7,0.9l0.8,0.9 l0.9,0.8l0.9,0.7l1.1,0.6l1.1,0.5l1.2,0.5l1.2,0.4l1.2,0.2l1.2,0.1L199.3,116.3L199.3,116.3z"></path> <path class="st2" d="M247.1,101.2H245v-14h2.7h0.6l0.5,0.1l0.6,0.1l0.6,0.2l0.5,0.2l0.5,0.2l0.5,0.4l0.4,0.4l0.5,0.4l0.4,0.4 l0.4,0.5l0.4,0.5l0.2,0.5l0.2,0.6l0.1,0.5l0.1,0.6v0.6v0.5v0.6v0.6l-0.1,0.6l-0.1,0.6l-0.1,0.6l-0.2,0.6l-0.4,0.6l-0.4,0.5 l-0.4,0.5l-0.5,0.5l-0.5,0.4l-0.5,0.4l-0.5,0.4l-0.6,0.2l-0.6,0.4l-0.6,0.1l-0.6,0.1l-0.6,0.1h-0.4V101.2z M268.6,94.7v1.4 l-0.1,1.7l-0.2,1.7l-0.4,1.7l-0.5,1.7l-0.6,1.5l-0.8,1.4l-0.9,1.4l-1.1,1.4l-1.2,1.3l-0.2,0.2l-0.4,0.2l-0.4,0.2l-0.4,0.2l-0.4,0.2 l-0.4,0.2l-0.4,0.2l-0.4,0.2l-0.4,0.2l-0.4,0.2l-0.4,0.2l-0.4,0.2l-0.4,0.2l-0.4,0.2l-0.4,0.1l-0.4,0.2l-0.4,0.1l-0.4,0.2l-0.4,0.1 l-0.4,0.1l-0.4,0.1l-0.4,0.1l-0.4,0.1l-0.4,0.1l-0.4,0.1l-0.4,0.1l-0.4,0.1l-0.4,0.1l-0.5,0.1h-0.4l-0.4,0.1h-0.4l-0.4,0.1 l-0.4,0.1h-0.4l-0.4,0.1h-0.6H249h-0.4h-0.5h-0.5H245v15.2h-14.6V73.8h17.3h0.2h0.4h0.4h0.4h0.4h0.4h0.4h0.4h0.4h0.4l0.4,0.1h0.4 l0.4,0.1l0.4,0.1l0.4,0.1l0.4,0.1l0.4,0.1l0.4,0.1l0.4,0.1l0.4,0.1L255,75l0.4,0.1l0.4,0.1l0.4,0.1l0.4,0.1l0.4,0.1l0.4,0.1 l0.4,0.1l0.4,0.2l0.4,0.1l0.4,0.1l0.4,0.2l0.2,0.2l0.4,0.2l0.4,0.2l0.4,0.2l0.4,0.2L261,78l0.4,0.2l0.2,0.2l0.4,0.2l0.2,0.2 l0.2,0.2l0.2,0.2l0.2,0.2l0.2,0.4l0.2,0.2l0.2,0.4l0-0.2l0.2,0.4l0.2,0.4l0.2,0.4l0.2,0.4l0.2,0.4l0.2,0.4l0.2,0.4l0.2,0.4l0.2,0.4 l0.2,0.4l0.2,0.4l0.1,0.4l0.2,0.4l0.1,0.4l0.1,0.4l0.1,0.4l0.1,0.4l0.1,0.4l0.1,0.4l0.1,0.4l0.1,0.4l0.1,0.4l0.1,0.4l0.1,0.4 l0.1,0.4l0.1,0.4l0.1,0.4l0.1,0.4l0.1,0.4l0.1,0.4v0.4v0.4l0.1,0.4v0.4v0.4v0.4v0.4L268.6,94.7L268.6,94.7z"></path> <path class="st2" d="M287.3,101.1h-2.1v-14h2.7h0.6l0.6,0.1l0.6,0.1l0.5,0.2l0.5,0.2l0.5,0.2l0.5,0.4l0.5,0.2l0.5,0.4l0.4,0.4 l0.4,0.5l0.4,0.5l0.2,0.5l0.2,0.5l0.1,0.5l0.1,0.6l0.1,0.6v0.5V94v0.6l-0.1,0.6l-0.1,0.6l-0.2,0.6l-0.2,0.6l-0.2,0.5l-0.4,0.5 l-0.4,0.5l-0.4,0.5l-0.5,0.4l-0.5,0.4l-0.6,0.4l-0.5,0.2l-0.6,0.4l-0.6,0.1l-0.6,0.1l-0.6,0.1h-0.7V101.1z M303,109.8l-0.2,0.2 l-0.4,0.2l-0.4,0.2l-0.4,0.2l-0.4,0.2l-0.4,0.2l-0.4,0.2l-0.4,0.2l-0.4,0.2l-0.4,0.2l-0.4,0.2l-0.4,0.2l-0.4,0.2l-0.4,0.2l-0.4,0.1 l-0.4,0.2l-0.4,0.1l-0.4,0.2l-0.4,0.1L296,114l-0.4,0.1l-0.4,0.1l-0.4,0.1l-0.4,0.1l-0.4,0.1l-0.4,0.1l-0.4,0.1l-0.4,0.1l-0.4,0.1 l-0.4,0.1l-0.4,0.1l-0.4,0.1h-0.4l-0.4,0.1h-0.4h-0.4h-0.4h-0.4h-0.4h-0.4h-0.4h-2.7v15.1h-15.1v-57h17.2h0.2h0.4h0.4h0.4h0.4h0.4 h0.4h0.4h0.4h0.4l0.4,0.1h0.4h0.4l0.4,0.1l0.4,0.1l0.4,0.1l0.4,0.1l0.4,0.1l0.4,0.1l0.4,0.1l0.4,0.1l0.4,0.1L296,75l0.4,0.1 l0.4,0.1l0.4,0.1l0.4,0.1l0.4,0.1l0.4,0.2l0.4,0.1l0.4,0.1l0.4,0.2l0.4,0.2l0.4,0.2l0.4,0.2l0.2,0.2l0.4,0.2l0.4,0.2l0.2,0.2 l0.2,0.2l0.4,0.2l0.2,0.2l0.2,0.2l0.2,0.2l0,0l0.2,0.2l0.2,0.2l0.2,0.4l0.2,0.4l0.2,0.4l0.2,0.4l0.2,0.4l0.2,0.4l0.2,0.4l0.2,0.4 l0.2,0.4l0.2,0.4l0.2,0.4l0.2,0.4l0.2,0.4l0.1,0.4l0.2,0.4l0.1,0.4l0.1,0.4L307,86l0.1,0.4l0.1,0.4l0.1,0.4l0.1,0.4l0.1,0.4 l0.1,0.4l0.1,0.4l0.1,0.4l0.1,0.4l0.1,0.4l0.1,0.4l0.1,0.4l0.1,0.4l0.1,0.4v0.4l0.1,0.4v0.4v0.4v0.4v0.4v0.4v0.4l0.1,1.4l-0.1,1.7 l-0.2,1.7l-0.4,1.7l-0.5,1.7l-0.6,1.5l-0.7,1.5l-0.9,1.4l-1.1,1.4L303,109.8L303,109.8z"></path> <polygon class="st2" points="310.7,130.5 343.9,130.5 343.9,115.3 325.3,115.3 325.3,108.8 337.6,108.8 337.6,94.2 325.3,94.2 325.3,87.9 343.9,87.9 343.9,73.7 310.7,73.7 "></polygon> <path class="st2" d="M337.1,151.5c1.9,0,3.7-0.4,5-1.8c1.3-1.4,1.7-3.6,1.7-5.5c0-1.9-0.5-4.7-2.3-6.1c-1.3-0.9-2.7-1.1-4.3-1.1 h-4.7v14.4H337.1L337.1,151.5z M333.7,138.4h3.2c1.2,0,2.4,0.1,3.2,0.5c1.9,1.1,2.4,3.3,2.4,5.5c0,1.9-0.5,4.4-2.4,5.3 c-1.1,0.6-2,0.7-3.2,0.7h-3.2V138.4L333.7,138.4z"></path> <path class="st2" d="M346.5,145.7c0.2-1.9,1.3-3.7,3.3-3.7s3.2,1.7,3.2,3.7H346.5L346.5,145.7z M354.4,146.7c0-3.7-1.7-5.7-4.4-5.7 c-2.8,0-4.6,2.5-4.6,5.5c0,3.1,1.4,5.3,4.6,5.3c2.5,0,3.7-1.4,4.3-3.4h-1.3c-0.4,1.5-1.5,2.4-3,2.4c-2.3,0-3.3-1.9-3.3-4H354.4 L354.4,146.7z"></path> <path class="st2" d="M357.4,146.5c0-2.3,0.7-4.3,3.3-4.3V141c-1.7,0-2.6,0.6-3.2,2.1l0,0v-1.9h-1.2v10.3h1.2v-5H357.4z"></path> <path class="st2" d="M375.2,146.4c0,2.4-1.3,4.3-3.3,4.3c-2.4,0-3.4-2.1-3.4-4.6c0-2.6,1.4-4,3.4-4 C374,142,375.2,143.9,375.2,146.4L375.2,146.4z M375.2,143L375.2,143c-0.7-1.3-2.3-2.1-3.6-2.1c-3.2,0-4.5,2.4-4.5,5.3 c0,2.8,1.4,5.5,4.5,5.5c1.4,0,2.8-0.7,3.6-1.9c0,2.4-0.4,4.7-3.6,4.7c-1.3,0-2.6-0.4-3-1.9h-1.2c0.1,1.2,1.3,3,4.2,3 c3.8,0,4.7-2.5,4.7-5.2v-9.3h-1.2V143L375.2,143z"></path> <path class="st2" d="M385.8,146.8c0,2.3-1.1,3.9-3.1,3.9c-1.8,0-2.6-0.9-2.6-2.7v-6.8h-1.2v6.8c0,2.1,0.8,3.8,3.6,3.8 c1.8,0,2.6-0.9,3.2-1.7v1.4h1.2v-10.3h-1.2v5.6H385.8z"></path> <path class="st2" d="M392.9,150.6c-0.4,0.1-0.6,0.1-0.9,0.1c-0.9,0-0.9-0.5-0.9-1.4v-7h1.9v-0.9H391v-2.8h-1.2v2.8h-1.4v0.9h1.4 v7.5c0,1.5,0.6,2,1.8,2c0.6,0,1.1-0.2,1.3-0.2V150.6L392.9,150.6z"></path> <path class="st2" d="M395.3,145.7c0.2-1.9,1.3-3.7,3.3-3.7c2,0,3.2,1.7,3.2,3.7H395.3L395.3,145.7z M403,146.7 c0-3.7-1.7-5.7-4.4-5.7c-2.8,0-4.6,2.5-4.6,5.5c0,3.1,1.4,5.3,4.6,5.3c2.5,0,3.7-1.4,4.3-3.4h-1.3c-0.4,1.5-1.5,2.4-3,2.4 c-2.3,0-3.3-1.9-3.3-4H403L403,146.7z"></path> <path class="st2" d="M420.8,145.2c0,1.1-0.1,2-0.6,3c-0.9,1.9-2.7,2.5-4.2,2.5c-3.2,0-5-2.7-5-5.9c0-4,1.5-6.9,5.2-6.9 c2,0,3.9,1.2,4.4,3.3h1.3c-0.6-3.1-2.8-4.5-5.8-4.5c-4.4,0-6.4,3.2-6.4,7.5c0,5.1,2.6,7.6,6.1,7.6c2.7,0,4.2-1.1,5.2-2.8v2.5h1.1 V144h-5.9v1.2H420.8L420.8,145.2z"></path> <path class="st2" d="M426,146.5c0-2.3,0.7-4.3,3.3-4.3V141c-1.7,0-2.6,0.6-3.2,2.1l0,0v-1.9h-1.2v10.3h1.2v-5H426z"></path> <path class="st2" d="M432.2,151.5v-10.3H431v10.3H432.2L432.2,151.5z M432.3,138.9v-1.8H431v1.8H432.3L432.3,138.9z"></path> <path class="st2" d="M435.4,142.3v9.3h1.2v-9.3h1.9v-0.9h-1.9V140c0-0.9,0-1.9,1.2-1.9c0.2,0,0.5,0,0.7,0.1v-1.1 c-0.4-0.1-0.6-0.1-0.9-0.1c-1.5,0-2.1,1.1-2.1,2.7v1.7H434v0.9h1.4V142.3z"></path> <path class="st2" d="M440.1,142.3v9.3h1.2v-9.3h1.9v-0.9h-1.9V140c0-0.9,0-1.9,1.2-1.9c0.2,0,0.5,0,0.7,0.1v-1.1 c-0.2-0.1-0.6-0.1-0.9-0.1c-1.5,0-2.1,1.1-2.1,2.7v1.7h-1.4v0.9h1.4V142.3z"></path> <polygon class="st2" points="446.8,151.5 446.8,149.7 445.4,149.7 445.4,151.5 "></polygon> <path class="st2" d="M353.4,88.2c4,0,7.4-3.3,7.4-7.4c0-4-3.3-7.4-7.4-7.4s-7.4,3.3-7.4,7.4S349.4,88.2,353.4,88.2L353.4,88.2z M353.4,87.2c-3.6,0-6.2-2.8-6.2-6.4s2.6-6.4,6.2-6.4s6.2,2.7,6.2,6.4C359.6,84.4,357,87.2,353.4,87.2L353.4,87.2z M354.6,81 c1.4,0,2.6-0.6,2.6-2.3c0-1.4-0.7-2.1-3-2.1h-3.6v8.2h0.9V81h1.9l2.4,3.8h1.2L354.6,81L354.6,81z M351.6,80.3v-3h2.4 c0.9,0,2,0.1,2,1.4c0,1.7-1.7,1.5-2.8,1.5H351.6L351.6,80.3z"></path> </g> </svg> 