<?xml version="1.0" encoding="UTF-8"?> <svg xmlns="http://www.w3.org/2000/svg" xmlns:xlink="http://www.w3.org/1999/xlink" version="1.1" id="Layer_1" x="0px" y="0px" viewBox="0 0 572 206.7" style="enable-background:new 0 0 572 206.7;" xml:space="preserve"> <style type="text/css"> .st0{fill-rule:evenodd;clip-rule:evenodd;fill:#2D399D;} .st1{fill-rule:evenodd;clip-rule:evenodd;fill:#D3000E;} .st2{fill-rule:evenodd;clip-rule:evenodd;fill:#7EC4EB;} .st3{fill:#008743;} .st4{fill:#BDBEC1;} .st5{fill:#254A9A;} .st6{fill:url(#path2982_00000106109999437307170700000010232414971969102773_);} .st7{fill:#161616;} .st8{fill:#F70013;} </style> <g> <path class="st8" d="M196.8,135.4c0.3-0.3,0.5-0.6,0.7-0.7c26.2-26.2,52.6-52.5,78.8-78.7c0.5-0.5,0.9-0.7,1.6-0.7 c12.1,0,24.3,0,36.4,0c0.6,0,0.9,0.1,1.4,0.6c26.4,26.4,52.7,52.6,79,79c0.2,0.2,0.3,0.3,0.7,0.7c-1.8,0-3.6,0-5.3,0 c-0.9,0-1.5-0.2-2.2-0.9C363,109.8,338.3,85,313.4,60.2c-0.3-0.3-0.6-0.7-0.8-0.9c-0.1,0-0.2-0.1-0.3-0.1c-0.2,0.3-0.3,0.7-0.6,0.9 c-24.7,24.9-49.5,49.6-74.1,74.5c-0.8,0.8-1.5,1-2.7,1c-12.4,0-24.7,0-37.1,0C197.6,135.4,197.3,135.4,196.8,135.4z"></path> <path class="st8" d="M273,135.3c0-10.2,0-20.3,0-30.5c0.2,0,0.3-0.1,0.6-0.1c4.4,0,8.7,0,13.1,0c2.5,0,4.9,0.7,6.8,2.3 c4.2,3.1,4.3,9.2,0.2,12.9c-0.8,0.7-1.7,1.3-2.7,2c2.7,4.4,5.4,8.8,8.3,13.4c-0.9,0-1.7,0-2.4,0c-1.5,0-3.1,0-4.6,0 c-0.5,0-0.8-0.1-1-0.6c-2.3-3.7-4.5-7.4-6.8-11.1c-0.3-0.5-0.6-0.7-1.3-0.7c-1.2,0-2.2,0-3.5,0c0,4.2,0,8.2,0,12.4 C277.4,135.3,275.2,135.3,273,135.3z M279.6,118c2,0,3.9,0,5.8,0c0.5,0,0.9-0.1,1.4-0.2c1.8-0.5,2.9-2,2.9-4c0-2-1-3.5-2.9-3.6 c-2.3-0.2-4.7-0.2-7.2-0.3C279.6,112.5,279.6,115.2,279.6,118z"></path> <path class="st8" d="M300.7,124.7c0.1-3.8,1.3-7.2,4.9-9.5c2.4-1.5,5.1-1.7,7.7-1.5c3.8,0.3,6.7,2.2,8.4,5.7c0.9,2,1.3,4,1.2,6.2 c-0.1,2.7-0.9,5.2-2.8,7.2c-2.4,2.7-5.7,3.5-9.1,3.4c-2.5-0.1-4.9-0.8-6.7-2.5C301.7,131.3,300.7,128.3,300.7,124.7z M307.1,124.9 c0.2,1.4,0.3,2.9,0.8,4.3c0.6,1.8,2,2.8,3.9,2.8c2,0,3.4-0.9,3.9-2.8c0.9-2.8,0.9-5.7,0-8.6c-0.6-1.8-2-2.8-3.9-2.8 c-2,0-3.4,0.9-3.9,2.8C307.4,122,307.3,123.4,307.1,124.9z"></path> <path class="st8" d="M354.6,113.6c3.6,0,6.8,1.3,9,4.7c1.5,2.5,1.8,5.3,1.6,8.1c-0.2,2.5-1.2,4.9-3,6.6c-2.4,2.4-5.4,3.1-8.8,3 c-2.7-0.1-5.1-0.9-6.9-2.8c-2.7-2.5-3.5-5.8-3.4-9.4c0.1-2.3,0.7-4.5,2.2-6.4C347.6,114.7,350.7,113.6,354.6,113.6z M349.5,124.8 c0.2,1.4,0.3,2.8,0.7,4.2c0.6,2,1.8,2.9,3.8,2.9c2.1,0,3.5-0.8,4-2.9c0.8-2.8,0.8-5.5,0-8.3c-0.6-2-2-2.9-4-2.9 c-2,0-3.4,0.9-3.9,2.9C349.9,122,349.8,123.4,349.5,124.8z"></path> <path class="st8" d="M324.8,114.3c1.4,0,2.8,0,4.3,0c0-1.3,0-2.4,0-3.6c0-0.2,0.1-0.6,0.3-0.7c2-0.7,3.9-1.4,6-2.2 c0,0.3,0,0.7,0,0.9c0,1.6,0,3.2,0,4.9c0,0.6,0.2,0.7,0.7,0.7c1.3,0,2.7,0,3.9,0c0,1.4,0,2.8,0,4.3c-1.5,0-3,0-4.6,0 c0,0.2-0.1,0.3-0.1,0.5c0,3.5,0,7.1,0,10.5c0,1.7,0.7,2.3,2.4,2.4c0.7,0,1.4,0,2.1,0c0,1.2,0,2.2,0,3.4c0,0.1-0.2,0.3-0.5,0.5 c-2.1,0.3-4.3,0.7-6.4,0.3c-2.3-0.5-3.7-1.8-3.9-4.3c-0.1-1-0.1-2.1-0.1-3.2c0-3.2,0-6.6,0-9.9c-1.4,0-2.8,0-4.3,0 C324.8,117,324.8,115.8,324.8,114.3z"></path> </g> </svg> 