<?xml version="1.0" encoding="UTF-8"?> <svg xmlns="http://www.w3.org/2000/svg" xmlns:xlink="http://www.w3.org/1999/xlink" version="1.1" id="Layer_1" x="0px" y="0px" viewBox="0 0 572 206.7" style="enable-background:new 0 0 572 206.7;" xml:space="preserve"> <style type="text/css"> .st0{fill-rule:evenodd;clip-rule:evenodd;fill:#2D399D;} .st1{fill-rule:evenodd;clip-rule:evenodd;fill:#D3000E;} .st2{fill-rule:evenodd;clip-rule:evenodd;fill:#7EC4EB;} .st3{fill:#008743;} .st4{fill:#BDBEC1;} .st5{fill:#254A9A;} .st6{fill:url(#path2982_00000087384230731303667480000009124040652736665238_);} .st7{fill:#161616;} .st8{fill:#F70013;} </style> <g id="layer1_00000049191328117070366200000014815381485830335934_" transform="translate(-65.838558,-194.80154)"> <g id="g3304_00000115514616389882081790000012188634076646937250_" transform="translate(0.26458474,-0.26458245)"> <g id="g2906_00000010276964513142116970000002237704809708482999_" transform="matrix(0.35277777,0,0,-0.35277777,67.668284,211.63528)"> <path id="path2908_00000085209435560801456730000017995715345507413661_" class="st5" d="M475.5-333.7c-9.4,2.8-13.5,4.6-13.5,10 c0,4.8,6.4,6.5,11.9,6.5c4.8,0,9.9-1.4,13.4-3.7c0.8-0.5,1.8-0.7,2.8-0.4c0.9,0.3,1.8,0.9,2.2,1.8l1.6,3.2 c0.8,1.6,0.3,3.5-1.2,4.4c-5,3.3-12.2,5.3-18.7,5.3c-13.6,0-22.7-7-22.7-17.4c0-13.5,11.4-16.9,20.5-19.7 c9.6-2.9,13.8-4.7,13.7-10.4c0-5.7-6.7-7.8-13-7.8c-6,0-12.6,3.2-16.6,6.9c-0.8,0.7-1.8,1.2-2.9,1c-1.1-0.1-2-0.7-2.6-1.7 l-1.8-3.1c-0.8-1.4-0.6-3.1,0.5-4.2c5.9-5.8,14.8-9.5,23.3-9.5c14.2,0,23.8,7.4,23.8,18.3C496.4-340,484.8-336.5,475.5-333.7"></path> </g> <g id="g2910_00000019654813693536643550000000192382567287828903_" transform="matrix(0.35277777,0,0,-0.35277777,71.864925,209.96735)"> <path id="path2912_00000039103056661357526970000000640034717116029355_" class="st5" d="M526.3-313.4c-0.6,1.2-1.8,2-3.1,2h-3.8 c-1.4,0-2.6-0.8-3.1-2L489.7-372c-0.5-1.1-0.4-2.3,0.2-3.3c0.6-1,1.7-1.6,2.9-1.6h3.9c1.4,0,2.6,0.8,3.2,2l6.6,14.6h29.8 l6.7-14.6c0.6-1.2,1.8-2,3.1-2h3.9c1.2,0,2.3,0.6,2.9,1.6c0.6,1,0.7,2.2,0.2,3.3L526.3-313.4z M511.1-349.8l10.1,22.5l10.3-22.5 H511.1"></path> </g> <g id="g2914_00000170969207782183879280000001075354660335973519_" transform="matrix(0.35277777,0,0,-0.35277777,74.819437,209.83259)"> <path id="path2916_00000090283649358798781180000004625883782519429765_" class="st5" d="M562.1-311.8h-3.5 c-1.9,0-3.5-1.6-3.5-3.5v-58.5c0-1.9,1.6-3.5,3.5-3.5h3.5c1.9,0,3.5,1.5,3.5,3.5v58.5C565.6-313.4,564-311.8,562.1-311.8"></path> </g> <g id="g2918_00000112592250789079784250000010957684826508864162_" transform="matrix(0.35277777,0,0,-0.35277777,79.704351,209.83259)"> <path id="path2920_00000114058588787507848110000011307192135656624547_" class="st5" d="M621.3-311.8h-3.4 c-1.9,0-3.5-1.6-3.5-3.5v-42.6l-32.9,44.7c-0.7,0.9-1.7,1.4-2.8,1.4h-4.1c-1.9,0-3.5-1.6-3.5-3.5v-58.5c0-1.9,1.5-3.5,3.5-3.5 h3.5c1.9,0,3.5,1.5,3.5,3.5v42.6l32.8-44.7c0.6-0.9,1.7-1.4,2.8-1.4h4.1c1.9,0,3.5,1.5,3.5,3.5v58.5 C624.8-313.4,623.2-311.8,621.3-311.8"></path> </g> <g id="g2922_00000134229225682957611810000002839482686883247518_" transform="matrix(0.35277777,0,0,-0.35277777,83.742949,209.83259)"> <path id="path2924_00000105419806389448555240000017337817178608623003_" class="st5" d="M670.3-311.8h-43.1 c-1.9,0-3.5-1.6-3.5-3.5v-3.4c0-1.9,1.5-3.5,3.5-3.5h16.3v-51.7c0-1.9,1.6-3.5,3.5-3.5h3.5c1.9,0,3.5,1.5,3.5,3.5v51.7h16.3 c1.9,0,3.5,1.6,3.5,3.5v3.4C673.7-313.4,672.2-311.8,670.3-311.8"></path> </g> <g id="g2926_00000008850848704627199310000002291875080713143180_" transform="matrix(0.35277777,0,0,-0.35277777,85.465212,211.9669)"> <path id="path2928_00000135676648671197074680000010843489193250990760_" class="st5" d="M691.1-337.7h-18.7 c-1.9,0-3.5-1.5-3.5-3.5v-2.8c0-1.9,1.6-3.5,3.5-3.5h18.7c1.9,0,3.5,1.5,3.5,3.5v2.8C694.6-339.2,693.1-337.7,691.1-337.7"></path> </g> <g id="g2930_00000096741709297645010510000015047003038550314387_" transform="matrix(0.35277777,0,0,-0.35277777,90.330367,211.82649)"> <path id="path2932_00000103227919378129743610000001512337866424887464_" class="st5" d="M750.1-336h-3.2c0,0,0,0-0.1,0h-10.4 c-1.9,0-3.5-1.6-3.5-3.5v-3.5c0-1.9,1.6-3.5,3.5-3.5h7v-10.7c-4.1-2.8-9-4.3-14-4.3c-12.9,0-23.4,10.1-23.4,22.6 c0,12.4,10.5,22.5,23.4,22.5c6,0,11.9-2.2,16.2-6.1c0.7-0.6,1.6-1,2.6-0.9c0.9,0.1,1.8,0.5,2.4,1.3l2.1,2.6 c1.2,1.5,1,3.6-0.4,4.8c-6.3,5.5-14.4,8.6-22.9,8.6c-18.7,0-33.9-14.7-33.9-32.8c0-18.1,15.1-32.9,33.7-32.9 c8.4,0,16.8,3.1,23,8.5c0.8,0.7,1.2,1.6,1.2,2.6v21.2C753.6-337.5,752-336,750.1-336"></path> </g> <g id="g2934_00000024688729526215987020000001883088733332537766_" transform="matrix(0.35277777,0,0,-0.35277777,93.612965,209.82659)"> <path id="path2936_00000149339436063730022560000009714004167124800189_" class="st5" d="M789.9-311.7 c-18.6,0-33.8-14.7-33.8-32.8c0-18.1,15.2-32.9,33.8-32.9c18.6,0,33.8,14.7,33.8,32.9C823.7-326.4,808.5-311.7,789.9-311.7 M789.9-367c-12.8,0-23.3,10.1-23.3,22.5c0,12.4,10.4,22.4,23.3,22.4c12.8,0,23.3-10.1,23.3-22.4 C813.1-356.9,802.7-367,789.9-367"></path> </g> <g id="g2938_00000054971538327513361830000001163614081422153106_" transform="matrix(0.35277777,0,0,-0.35277777,99.580205,211.89775)"> <path id="path2940_00000012471522339933275350000017138238000448474505_" class="st5" d="M862.2-336.8c3.5,3,5.5,7.5,5.5,12.9 c0,11.1-8.3,18-21.7,18h-24c-1.9,0-3.5-1.6-3.5-3.5V-368c0-1.9,1.6-3.5,3.5-3.5h24.1c15.3,0,24.5,7.2,24.5,19.2 C870.6-345.4,867.5-340,862.2-336.8 M845.9-332.5H829v16.2h16.9c5.2,0,11.4-1.4,11.4-8C857.2-329.7,853.4-332.5,845.9-332.5 M829-342.9h16.9c5.3,0,14.3-1.2,14.3-8.9c0-7.7-7.8-9.3-14.3-9.3H829V-342.9"></path> </g> <g id="g2942_00000059291658043992648440000016076607123676339623_" transform="matrix(0.35277777,0,0,-0.35277777,102.98416,209.96735)"> <path id="path2944_00000143616906996528854870000006211842801366735264_" class="st5" d="M903.4-313.4c-0.6,1.2-1.8,2-3.1,2h-3.8 c-1.4,0-2.6-0.8-3.2-2L866.8-372c-0.5-1.1-0.4-2.3,0.2-3.3c0.6-1,1.7-1.6,2.9-1.6h3.9c1.4,0,2.6,0.8,3.2,2l6.6,14.6h29.8 l6.7-14.6c0.6-1.2,1.8-2,3.1-2h3.9c1.2,0,2.3,0.6,2.9,1.6c0.6,1,0.7,2.2,0.2,3.3L903.4-313.4z M888.2-349.8l10.1,22.5l10.3-22.5 H888.2"></path> </g> <g id="g2946_00000003791999510772993400000000737035668432060292_" transform="matrix(0.35277777,0,0,-0.35277777,105.93832,209.83259)"> <path id="path2948_00000132065773304667076040000008890018559443985824_" class="st5" d="M939.2-311.8h-3.5 c-1.9,0-3.5-1.6-3.5-3.5v-58.5c0-1.9,1.6-3.5,3.5-3.5h3.5c1.9,0,3.5,1.5,3.5,3.5v58.5C942.7-313.4,941.1-311.8,939.2-311.8"></path> </g> <g id="g2950_00000036967379607704455530000017107882457910744717_" transform="matrix(0.35277777,0,0,-0.35277777,110.82323,209.83259)"> <path id="path2952_00000110450578451467927160000013009155393631570851_" class="st5" d="M998.4-311.8H995 c-1.9,0-3.5-1.6-3.5-3.5v-42.6l-32.9,44.7c-0.6,0.9-1.7,1.4-2.8,1.4h-4.1c-1.9,0-3.5-1.6-3.5-3.5v-58.5c0-1.9,1.6-3.5,3.5-3.5 h3.5c1.9,0,3.5,1.5,3.5,3.5v42.6l32.8-44.7c0.6-0.9,1.7-1.4,2.8-1.4h4.1c1.9,0,3.5,1.5,3.5,3.5v58.5 C1001.9-313.4,1000.3-311.8,998.4-311.8"></path> </g> <g id="g2954_00000132801325938720686010000000956897063480422036_" transform="matrix(0.35277777,0,0,-0.35277777,45.907535,247.25702)"> <g id="g2956_00000138544494783673031600000009958565219111192747_"> <g id="g2962_00000057112154426859082460000006388886118423884444_"> <g id="g2964_00000148639219356447980220000008690430267746216839_"> <linearGradient id="path2982_00000181054154492160479320000000085299166004684468_" gradientUnits="userSpaceOnUse" x1="-13906.041" y1="-13722.2676" x2="-13904.6455" y2="-13722.2676" gradientTransform="matrix(128.176 0 0 -128.176 1783015.625 -1758950.75)"> <stop offset="0" style="stop-color:#54B6AE"></stop> <stop offset="0.1" style="stop-color:#54B6AE"></stop> <stop offset="0.3" style="stop-color:#3B98DA"></stop> <stop offset="0.42" style="stop-color:#254A9A"></stop> <stop offset="0.55" style="stop-color:#ED1443"></stop> <stop offset="0.84" style="stop-color:#F25C19"></stop> <stop offset="1" style="stop-color:#F25C19"></stop> </linearGradient> <path id="path2982_00000093859299590824159200000009993785367962430606_" style="fill:url(#path2982_00000181054154492160479320000000085299166004684468_);" d=" M889.9-113.9v-57.6h-10.6v65.5L889.9-113.9z M1095.3-171.2h-41.7l-0.3,0.3l-36.7,36.3c-1.5,1.5-3.8,1.9-5.7,1.1 c-2-0.8-3.2-2.7-3.2-4.9v-33h-10.9v81.7c0,1.4-0.6,2.8-1.7,3.8l-30.5,28.8c-1,0.9-2.3,1.4-3.6,1.4h-15.2 c-2.9,0-5.3-2.4-5.3-5.3v-110.4h-10.8V5.9c0,2.2-1.3,4.1-3.3,4.9c-2,0.8-4.3,0.3-5.8-1.2l-50.5-51.2c-1-1-1.5-2.3-1.5-3.7 v-39.5l-20.7,15.4c-1.9,1.4-4.6,1.4-6.5-0.1l-47-37.7c-1.3-1-2-2.5-2-4.1v-60.1H782v33.1c0,11.6-8,24-22.8,24 c-14.8,0-22.8-12.4-22.8-24.1v-33l-10.8,0v22.5c0,9.1-6.3,18.8-17.9,18.8s-17.9-9.7-17.9-18.8v-22.5l-10.7,0l0,1 c0,4.5,0,10.3,0,12.6c0,7.7-7.3,14.5-15.6,14.5c-8.3,0-15.6-6.7-15.6-14.4v-13.7l-47,0c-2.9,0-5.3-2.4-5.3-5.3 c0-1.4,0.5-2.7,1.5-3.7c1-1,2.3-1.5,3.7-1.5l52.3,0c1.4,0,2.7,0.5,3.7,1.5c1,1,1.6,2.3,1.6,3.7v18c0,2,2.1,4.8,5.1,4.8 c2.9,0,5.1-2.6,5.1-5c0-1.4,0.1-17.9,0.1-17.9c0-2.9,2.4-5.3,5.3-5.3l21.3,0c2.9,0,5.3,2.4,5.3,5.3v27.7 c0,2.9,1.5,8.2,7.3,8.2c5.8,0,7.3-5.4,7.3-8.2v-27.7c0-2.9,2.4-5.3,5.3-5.3l21.3,0c1.4,0,2.8,0.6,3.7,1.5c1,1,1.5,2.3,1.5,3.7 v38.3c0,4.7,2.6,13.6,12.3,13.6c9,0,12.3-8,12.3-13.4v-38.4c0-2.9,2.4-5.3,5.3-5.3h21.2c2.9,0,5.3,2.4,5.3,5.3v62.8l0.4,0.3 L845-80.4l23.7-17.7v-78.6c0-2.9,2.4-5.3,5.3-5.3h21.2c2.9,0,5.3,2.4,5.3,5.3v65.5c0,1.7-0.8,3.2-2.1,4.2l-19,14.2v45.3 l0.3,0.3L919.2-7v-169.7c0-2.9,2.4-5.3,5.3-5.3h21.4c2.9,0,5.3,2.4,5.3,5.3v110.4h7.9l0.3-0.3l27-25.5v-84.7 c0-2.9,2.4-5.3,5.3-5.3h21.4c2.9,0,5.3,2.4,5.3,5.3v25.6l29.5-29.2c1-1,2.3-1.5,3.7-1.5h43.9c2.9,0,5.3,2.4,5.3,5.3 C1100.6-173.6,1098.2-171.2,1095.3-171.2"></path> </g> </g> </g> </g> </g> </g> </svg> 